<svg xmlns="http://www.w3.org/2000/svg" viewBox="0 0 854 98"><g fill="none" fill-rule="evenodd"><g fill="#FFF" fill-rule="nonzero"><path d="M0 7.4h14.6v25.8h28.3V7.4h14.7V74H42.9V45.6H14.6V74H0zM93.3 75.5c-5.2 0-9.783-1.133-13.75-3.4-3.967-2.267-7.05-5.45-9.25-9.55-2.2-4.1-3.3-8.85-3.3-14.25s1.083-10.15 3.25-14.25 5.233-7.283 9.2-9.55c3.967-2.267 8.55-3.4 13.75-3.4 5.2 0 9.783 1.117 13.75 3.35 3.967 2.233 7.033 5.383 9.2 9.45 2.167 4.067 3.25 8.767 3.25 14.1 0 5.4-1.083 10.183-3.25 14.35s-5.233 7.4-9.2 9.7c-3.967 2.3-8.517 3.45-13.65 3.45Zm-.1-12.2c3.6 0 6.483-1.383 8.65-4.15 2.167-2.767 3.25-6.417 3.25-10.95 0-4.533-1.083-8.15-3.25-10.85-2.167-2.7-5.05-4.05-8.65-4.05-3.6 0-6.483 1.35-8.65 4.05-2.167 2.7-3.25 6.317-3.25 10.85 0 4.533 1.083 8.183 3.25 10.95 2.167 2.767 5.05 4.15 8.65 4.15ZM122 22.5h14.4l9.2 34.1 9.9-33.8 15.9-1.3 10.7 36.1 9.4-35.1h13.4L189.2 74h-15.4l-10.6-37.4L152.1 74H137zM244.7 27l-4.2 47h-12.9l6.3-66.6h18l17 47.8 16.5-47.8h18l6.1 66.6h-13l-4.6-46.8-17.6 47.5-11.9 1.1zM334 75.5c-5.333 0-9.567-2.267-12.7-6.8-3.133-4.533-4.7-10.7-4.7-18.5 0-9.467 2.4-16.683 7.2-21.65 4.8-4.967 11.7-7.45 20.7-7.45 5.067 0 11 .8 17.8 2.4V74h-13.4l.3-8.2h-.4c-1.733 3.133-3.85 5.533-6.35 7.2-2.5 1.667-5.317 2.5-8.45 2.5Zm3-12.3c2.067 0 4.1-1.1 6.1-3.3 2-2.2 3.867-5.133 5.6-8.8V34.3c-2.133-.6-4.267-.9-6.4-.9-4 0-7.017 1.367-9.05 4.1-2.033 2.733-3.05 6.767-3.05 12.1 0 4.2.6 7.517 1.8 9.95 1.2 2.433 2.867 3.65 5 3.65ZM374.4 22.5h13.8v8.9c2.133-3.533 4.6-6.133 7.4-7.8 2.8-1.667 6.067-2.5 9.8-2.5 5.533 0 9.867 1.65 13 4.95 3.133 3.3 4.7 7.883 4.7 13.75V74H409V42c0-2.667-.667-4.75-2-6.25s-3.133-2.25-5.4-2.25c-2.667 0-5.2 1-7.6 3-2.4 2-4.233 4.533-5.5 7.6V74h-14.1V22.5ZM441.3 96.4c-3.067 0-6.267-.733-9.6-2.2l2.1-11.6c2.533 1.267 4.667 1.9 6.4 1.9 2.067 0 3.617-.667 4.65-2 1.033-1.333 2.15-3.667 3.35-7l-20.1-52.8 14.6-1.2L455 58.4l11.4-35.9h13.9a1009.56 1009.56 0 0 1-13.45 38.2c-4.7 12.533-8.35 21.133-10.95 25.8-1.867 3.333-3.95 5.817-6.25 7.45s-5.083 2.45-8.35 2.45ZM523.1 75.3c-3.867 0-7.55-.433-11.05-1.3-3.5-.867-6.517-2.033-9.05-3.5l1.2-13.4c3 1.867 6.15 3.317 9.45 4.35 3.3 1.033 6.35 1.55 9.15 1.55 3.2 0 5.8-.667 7.8-2s3-3.1 3-5.3c0-1.8-.667-3.183-2-4.15-1.333-.967-3.433-2.017-6.3-3.15l-2.4-1c-.333-.133-.7-.283-1.1-.45-.4-.167-.867-.35-1.4-.55-3.733-1.533-6.733-2.983-9-4.35-2.267-1.367-4.217-3.283-5.85-5.75s-2.45-5.667-2.45-9.6c0-6.4 2.167-11.433 6.5-15.1s10.367-5.5 18.1-5.5c5.867 0 11.867 1.2 18 3.6l-2.2 13.2a35.677 35.677 0 0 0-7.95-3.3c-2.833-.8-5.517-1.2-8.05-1.2-3.133 0-5.567.617-7.3 1.85-1.733 1.233-2.6 2.883-2.6 4.95 0 1.8.6 3.2 1.8 4.2 1.2 1 3.133 2.067 5.8 3.2l4.1 1.6c3.867 1.467 7.067 2.9 9.6 4.3 2.533 1.4 4.7 3.417 6.5 6.05 1.8 2.633 2.7 6.05 2.7 10.25 0 6.467-2.2 11.5-6.6 15.1-4.4 3.6-10.533 5.4-18.4 5.4ZM557.5 22.5h13.7l-.3 6.7h.4c1.733-2.667 3.85-4.7 6.35-6.1 2.5-1.4 5.35-2.1 8.55-2.1 5.8 0 10.35 2.217 13.65 6.65 3.3 4.433 4.95 10.617 4.95 18.55 0 9.4-2.45 16.617-7.35 21.65-4.9 5.033-11.883 7.55-20.95 7.55-1.133 0-2.833-.067-5.1-.2v20.6h-13.9V22.5Zm20.4 40.6c4.2 0 7.383-1.367 9.55-4.1 2.167-2.733 3.25-6.733 3.25-12 0-4.267-.683-7.617-2.05-10.05-1.367-2.433-3.25-3.65-5.65-3.65-2.133 0-4.2.917-6.2 2.75s-3.8 4.45-5.4 7.85v18.3c2.267.6 4.433.9 6.5.9ZM629 75.5c-5.333 0-9.567-2.267-12.7-6.8-3.133-4.533-4.7-10.7-4.7-18.5 0-9.467 2.4-16.683 7.2-21.65 4.8-4.967 11.7-7.45 20.7-7.45 5.067 0 11 .8 17.8 2.4V74h-13.4l.3-8.2h-.4c-1.733 3.133-3.85 5.533-6.35 7.2-2.5 1.667-5.317 2.5-8.45 2.5Zm3-12.3c2.067 0 4.1-1.1 6.1-3.3 2-2.2 3.867-5.133 5.6-8.8V34.3c-2.133-.6-4.267-.9-6.4-.9-4 0-7.017 1.367-9.05 4.1-2.033 2.733-3.05 6.767-3.05 12.1 0 4.2.6 7.517 1.8 9.95 1.2 2.433 2.867 3.65 5 3.65ZM692.7 75.5c-8.533 0-15.15-2.267-19.85-6.8-4.7-4.533-7.05-10.933-7.05-19.2 0-5.6 1.1-10.55 3.3-14.85 2.2-4.3 5.3-7.633 9.3-10 4-2.367 8.633-3.55 13.9-3.55 2.467 0 5.05.283 7.75.85s4.783 1.217 6.25 1.95l-2.7 11.9c-1.533-.733-3.217-1.317-5.05-1.75-1.833-.433-3.55-.65-5.15-.65-4.133 0-7.45 1.4-9.95 4.2-2.5 2.8-3.75 6.5-3.75 11.1 0 4.667 1.283 8.267 3.85 10.8 2.567 2.533 6.217 3.8 10.95 3.8 3.133 0 6.5-.6 10.1-1.8l2.1 11.4c-4.333 1.733-9 2.6-14 2.6ZM738.9 75.5c-8.333 0-14.883-2.4-19.65-7.2-4.767-4.8-7.15-11.467-7.15-20 0-5.533 1.033-10.35 3.1-14.45s4.983-7.25 8.75-9.45c3.767-2.2 8.183-3.3 13.25-3.3 7.467 0 13.2 2.4 17.2 7.2 4 4.8 6 11.733 6 20.8 0 1.533-.033 2.667-.1 3.4h-34c.667 3.533 2.2 6.217 4.6 8.05 2.4 1.833 5.633 2.75 9.7 2.75 2.467 0 5.033-.317 7.7-.95s5-1.483 7-2.55l2.3 11.3c-2.667 1.4-5.617 2.483-8.85 3.25a42.548 42.548 0 0 1-9.85 1.15Zm8-33.6c-.2-2.867-1.2-5.15-3-6.85-1.8-1.7-4.2-2.55-7.2-2.55-2.867 0-5.217.833-7.05 2.5-1.833 1.667-2.983 3.967-3.45 6.9h20.7ZM784.2 75.5c-3.267 0-6.417-.333-9.45-1-3.033-.667-5.617-1.567-7.75-2.7l1.3-12c2.267 1.4 4.767 2.533 7.5 3.4 2.733.867 5.3 1.3 7.7 1.3 2.267 0 4.167-.417 5.7-1.25 1.533-.833 2.3-2.05 2.3-3.65 0-1.267-.533-2.25-1.6-2.95-1.067-.7-3.1-1.583-6.1-2.65l-2.7-1c-2.867-1.067-5.2-2.083-7-3.05-1.8-.967-3.433-2.45-4.9-4.45-1.467-2-2.2-4.633-2.2-7.9 0-5.2 1.95-9.25 5.85-12.15 3.9-2.9 8.983-4.35 15.25-4.35 4.933 0 10.133.967 15.6 2.9l-1.9 11.9c-1.933-1.133-4.117-2.05-6.55-2.75-2.433-.7-4.717-1.05-6.85-1.05-2.2 0-3.95.367-5.25 1.1-1.3.733-1.95 1.8-1.95 3.2 0 1.333.533 2.333 1.6 3 1.067.667 2.867 1.433 5.4 2.3 2 .733 3.167 1.167 3.5 1.3 2.8 1.133 5.133 2.233 7 3.3 1.867 1.067 3.5 2.65 4.9 4.75 1.4 2.1 2.1 4.783 2.1 8.05 0 5.467-1.967 9.567-5.9 12.3-3.933 2.733-9.133 4.1-15.6 4.1ZM824.8 50.9c-.533-3.2-.8-5.633-.8-7.3 0-2.6.367-4.683 1.1-6.25.733-1.567 1.933-3.25 3.6-5.05.667-.667 2.2-2.133 4.6-4.4 2.333-2.133 4-3.867 5-5.2 1-1.333 1.5-2.867 1.5-4.6 0-1.8-.583-3.25-1.75-4.35-1.167-1.1-2.75-1.65-4.75-1.65-2.133 0-4.083.683-5.85 2.05-1.767 1.367-2.917 3.483-3.45 6.35-4.533-.933-9-2.133-13.4-3.6 1.267-4.733 3.983-8.65 8.15-11.75C822.917 2.05 827.933.5 833.8.5c5.8 0 10.5 1.5 14.1 4.5 3.6 3 5.4 7.033 5.4 12.1 0 3.533-.833 6.617-2.5 9.25s-4.133 5.617-7.4 8.95l-2.5 2.5c-2.4 2.467-3.95 4.167-4.65 5.1-.7.933-1.083 2.033-1.15 3.3l-.2 3.8-10.1.9Zm5 25.6c-2.533 0-4.733-.933-6.6-2.8-1.867-1.867-2.8-4.1-2.8-6.7 0-2.533.917-4.733 2.75-6.6s4.05-2.8 6.65-2.8c2.6 0 4.817.933 6.65 2.8 1.833 1.867 2.75 4.1 2.75 6.7 0 2.533-.917 4.733-2.75 6.6s-4.05 2.8-6.65 2.8Z"/></g><circle fill="#FF4747" cx="830" cy="67" r="10"/><circle fill="#FF4747" cx="830" cy="67" r="10"><animate attributeName="r" attributeType="XML" begin="0s" dur="3s" calcMode="spline" values="10; 20; 20; 20; 20" keyTimes="0; 0.25; 0.5; 0.75; 1" repeatCount="indefinite" keySplines="0.5 0 0.5 1; 0.5 0 0.5 1; 0.5 0 0.5 1; 0.5 0 0.5 1"/><animate attributeName="opacity" attributeType="XML" begin="0s" dur="3s" calcMode="spline" values="1; 0; 0; 0; 0" keyTimes="0; 0.25; 0.5; 0.75; 1" repeatCount="indefinite" keySplines="0.5 0 0.5 1; 0.5 0 0.5 1; 0.5 0 0.5 1; 0.5 0 0.5 1"/></circle></g></svg>