<?xml version="1.0" encoding="UTF-8"?>
<svg width="854px" height="98px" viewBox="0 0 854 98" version="1.1" xmlns="http://www.w3.org/2000/svg" xmlns:xlink="http://www.w3.org/1999/xlink">
    <title>Artboard</title>
    <g id="Artboard" stroke="none" stroke-width="1" fill="none" fill-rule="evenodd">
        <g id="How-Many-Spaces?" transform="translate(0.000000, 0.500000)" fill="#FFFFFF" fill-rule="nonzero">
            <polygon id="Path" points="0 6.9 14.6 6.9 14.6 32.7 42.9 32.7 42.9 6.9 57.6 6.9 57.6 73.5 42.9 73.5 42.9 45.1 14.6 45.1 14.6 73.5 0 73.5"></polygon>
            <path d="M93.3,75 C88.1,75 83.5166667,73.8666667 79.55,71.6 C75.5833333,69.3333333 72.5,66.15 70.3,62.05 C68.1,57.95 67,53.2 67,47.8 C67,42.4 68.0833333,37.65 70.25,33.55 C72.4166667,29.45 75.4833333,26.2666667 79.45,24 C83.4166667,21.7333333 88,20.6 93.2,20.6 C98.4,20.6 102.983333,21.7166667 106.95,23.95 C110.916667,26.1833333 113.983333,29.3333333 116.15,33.4 C118.316667,37.4666667 119.4,42.1666667 119.4,47.5 C119.4,52.9 118.316667,57.6833333 116.15,61.85 C113.983333,66.0166667 110.916667,69.25 106.95,71.55 C102.983333,73.85 98.4333333,75 93.3,75 Z M93.2,62.8 C96.8,62.8 99.6833333,61.4166667 101.85,58.65 C104.016667,55.8833333 105.1,52.2333333 105.1,47.7 C105.1,43.1666667 104.016667,39.55 101.85,36.85 C99.6833333,34.15 96.8,32.8 93.2,32.8 C89.6,32.8 86.7166667,34.15 84.55,36.85 C82.3833333,39.55 81.3,43.1666667 81.3,47.7 C81.3,52.2333333 82.3833333,55.8833333 84.55,58.65 C86.7166667,61.4166667 89.6,62.8 93.2,62.8 Z" id="Shape"></path>
            <polygon id="Path" points="122 22 136.4 22 145.6 56.1 155.5 22.3 171.4 21 182.1 57.1 191.5 22 204.9 22 189.2 73.5 173.8 73.5 163.2 36.1 152.1 73.5 137 73.5"></polygon>
            <polygon id="Path" points="244.7 26.5 240.5 73.5 227.6 73.5 233.9 6.9 251.9 6.9 268.9 54.7 285.4 6.9 303.4 6.9 309.5 73.5 296.5 73.5 291.9 26.7 274.3 74.2 262.4 75.3"></polygon>
            <path d="M334,75 C328.666667,75 324.433333,72.7333333 321.3,68.2 C318.166667,63.6666667 316.6,57.5 316.6,49.7 C316.6,40.2333333 319,33.0166667 323.8,28.05 C328.6,23.0833333 335.5,20.6 344.5,20.6 C349.566667,20.6 355.5,21.4 362.3,23 L362.3,73.5 L348.9,73.5 L349.2,65.3 L348.8,65.3 C347.066667,68.4333333 344.95,70.8333333 342.45,72.5 C339.95,74.1666667 337.133333,75 334,75 Z M337,62.7 C339.066667,62.7 341.1,61.6 343.1,59.4 C345.1,57.2 346.966667,54.2666667 348.7,50.6 L348.7,33.8 C346.566667,33.2 344.433333,32.9 342.3,32.9 C338.3,32.9 335.283333,34.2666667 333.25,37 C331.216667,39.7333333 330.2,43.7666667 330.2,49.1 C330.2,53.3 330.8,56.6166667 332,59.05 C333.2,61.4833333 334.866667,62.7 337,62.7 Z" id="Shape"></path>
            <path d="M374.4,22 L388.2,22 L388.2,30.9 C390.333333,27.3666667 392.8,24.7666667 395.6,23.1 C398.4,21.4333333 401.666667,20.6 405.4,20.6 C410.933333,20.6 415.266667,22.25 418.4,25.55 C421.533333,28.85 423.1,33.4333333 423.1,39.3 L423.1,73.5 L409,73.5 L409,41.5 C409,38.8333333 408.333333,36.75 407,35.25 C405.666667,33.75 403.866667,33 401.6,33 C398.933333,33 396.4,34 394,36 C391.6,38 389.766667,40.5333333 388.5,43.6 L388.5,73.5 L374.4,73.5 L374.4,22 Z" id="Path"></path>
            <path d="M441.3,95.9 C438.233333,95.9 435.033333,95.1666667 431.7,93.7 L433.8,82.1 C436.333333,83.3666667 438.466667,84 440.2,84 C442.266667,84 443.816667,83.3333333 444.85,82 C445.883333,80.6666667 447,78.3333333 448.2,75 L428.1,22.2 L442.7,21 L455,57.9 L466.4,22 L480.3,22 C476.033333,34.9333333 471.55,47.6666667 466.85,60.2 C462.15,72.7333333 458.5,81.3333333 455.9,86 C454.033333,89.3333333 451.95,91.8166667 449.65,93.45 C447.35,95.0833333 444.566667,95.9 441.3,95.9 Z" id="Path"></path>
            <path d="M523.1,74.8 C519.233333,74.8 515.55,74.3666667 512.05,73.5 C508.55,72.6333333 505.533333,71.4666667 503,70 L504.2,56.6 C507.2,58.4666667 510.35,59.9166667 513.65,60.95 C516.95,61.9833333 520,62.5 522.8,62.5 C526,62.5 528.6,61.8333333 530.6,60.5 C532.6,59.1666667 533.6,57.4 533.6,55.2 C533.6,53.4 532.933333,52.0166667 531.6,51.05 C530.266667,50.0833333 528.166667,49.0333333 525.3,47.9 L522.9,46.9 C522.566667,46.7666667 522.2,46.6166667 521.8,46.45 C521.4,46.2833333 520.933333,46.1 520.4,45.9 C516.666667,44.3666667 513.666667,42.9166667 511.4,41.55 C509.133333,40.1833333 507.183333,38.2666667 505.55,35.8 C503.916667,33.3333333 503.1,30.1333333 503.1,26.2 C503.1,19.8 505.266667,14.7666667 509.6,11.1 C513.933333,7.43333333 519.966667,5.6 527.7,5.6 C533.566667,5.6 539.566667,6.8 545.7,9.2 L543.5,22.4 C541.033333,21 538.383333,19.9 535.55,19.1 C532.716667,18.3 530.033333,17.9 527.5,17.9 C524.366667,17.9 521.933333,18.5166667 520.2,19.75 C518.466667,20.9833333 517.6,22.6333333 517.6,24.7 C517.6,26.5 518.2,27.9 519.4,28.9 C520.6,29.9 522.533333,30.9666667 525.2,32.1 L529.3,33.7 C533.166667,35.1666667 536.366667,36.6 538.9,38 C541.433333,39.4 543.6,41.4166667 545.4,44.05 C547.2,46.6833333 548.1,50.1 548.1,54.3 C548.1,60.7666667 545.9,65.8 541.5,69.4 C537.1,73 530.966667,74.8 523.1,74.8 Z" id="Path"></path>
            <path d="M557.5,22 L571.2,22 L570.9,28.7 L571.3,28.7 C573.033333,26.0333333 575.15,24 577.65,22.6 C580.15,21.2 583,20.5 586.2,20.5 C592,20.5 596.55,22.7166667 599.85,27.15 C603.15,31.5833333 604.8,37.7666667 604.8,45.7 C604.8,55.1 602.35,62.3166667 597.45,67.35 C592.55,72.3833333 585.566667,74.9 576.5,74.9 C575.366667,74.9 573.666667,74.8333333 571.4,74.7 L571.4,95.3 L557.5,95.3 L557.5,22 Z M577.9,62.6 C582.1,62.6 585.283333,61.2333333 587.45,58.5 C589.616667,55.7666667 590.7,51.7666667 590.7,46.5 C590.7,42.2333333 590.016667,38.8833333 588.65,36.45 C587.283333,34.0166667 585.4,32.8 583,32.8 C580.866667,32.8 578.8,33.7166667 576.8,35.55 C574.8,37.3833333 573,40 571.4,43.4 L571.4,61.7 C573.666667,62.3 575.833333,62.6 577.9,62.6 Z" id="Shape"></path>
            <path d="M629,75 C623.666667,75 619.433333,72.7333333 616.3,68.2 C613.166667,63.6666667 611.6,57.5 611.6,49.7 C611.6,40.2333333 614,33.0166667 618.8,28.05 C623.6,23.0833333 630.5,20.6 639.5,20.6 C644.566667,20.6 650.5,21.4 657.3,23 L657.3,73.5 L643.9,73.5 L644.2,65.3 L643.8,65.3 C642.066667,68.4333333 639.95,70.8333333 637.45,72.5 C634.95,74.1666667 632.133333,75 629,75 Z M632,62.7 C634.066667,62.7 636.1,61.6 638.1,59.4 C640.1,57.2 641.966667,54.2666667 643.7,50.6 L643.7,33.8 C641.566667,33.2 639.433333,32.9 637.3,32.9 C633.3,32.9 630.283333,34.2666667 628.25,37 C626.216667,39.7333333 625.2,43.7666667 625.2,49.1 C625.2,53.3 625.8,56.6166667 627,59.05 C628.2,61.4833333 629.866667,62.7 632,62.7 Z" id="Shape"></path>
            <path d="M692.7,75 C684.166667,75 677.55,72.7333333 672.85,68.2 C668.15,63.6666667 665.8,57.2666667 665.8,49 C665.8,43.4 666.9,38.45 669.1,34.15 C671.3,29.85 674.4,26.5166667 678.4,24.15 C682.4,21.7833333 687.033333,20.6 692.3,20.6 C694.766667,20.6 697.35,20.8833333 700.05,21.45 C702.75,22.0166667 704.833333,22.6666667 706.3,23.4 L703.6,35.3 C702.066667,34.5666667 700.383333,33.9833333 698.55,33.55 C696.716667,33.1166667 695,32.9 693.4,32.9 C689.266667,32.9 685.95,34.3 683.45,37.1 C680.95,39.9 679.7,43.6 679.7,48.2 C679.7,52.8666667 680.983333,56.4666667 683.55,59 C686.116667,61.5333333 689.766667,62.8 694.5,62.8 C697.633333,62.8 701,62.2 704.6,61 L706.7,72.4 C702.366667,74.1333333 697.7,75 692.7,75 Z" id="Path"></path>
            <path d="M738.9,75 C730.566667,75 724.016667,72.6 719.25,67.8 C714.483333,63 712.1,56.3333333 712.1,47.8 C712.1,42.2666667 713.133333,37.45 715.2,33.35 C717.266667,29.25 720.183333,26.1 723.95,23.9 C727.716667,21.7 732.133333,20.6 737.2,20.6 C744.666667,20.6 750.4,23 754.4,27.8 C758.4,32.6 760.4,39.5333333 760.4,48.6 C760.4,50.1333333 760.366667,51.2666667 760.3,52 L726.3,52 C726.966667,55.5333333 728.5,58.2166667 730.9,60.05 C733.3,61.8833333 736.533333,62.8 740.6,62.8 C743.066667,62.8 745.633333,62.4833333 748.3,61.85 C750.966667,61.2166667 753.3,60.3666667 755.3,59.3 L757.6,70.6 C754.933333,72 751.983333,73.0833333 748.75,73.85 C745.516667,74.6166667 742.233333,75 738.9,75 Z M746.9,41.4 C746.7,38.5333333 745.7,36.25 743.9,34.55 C742.1,32.85 739.7,32 736.7,32 C733.833333,32 731.483333,32.8333333 729.65,34.5 C727.816667,36.1666667 726.666667,38.4666667 726.2,41.4 L746.9,41.4 Z" id="Shape"></path>
            <path d="M784.2,75 C780.933333,75 777.783333,74.6666667 774.75,74 C771.716667,73.3333333 769.133333,72.4333333 767,71.3 L768.3,59.3 C770.566667,60.7 773.066667,61.8333333 775.8,62.7 C778.533333,63.5666667 781.1,64 783.5,64 C785.766667,64 787.666667,63.5833333 789.2,62.75 C790.733333,61.9166667 791.5,60.7 791.5,59.1 C791.5,57.8333333 790.966667,56.85 789.9,56.15 C788.833333,55.45 786.8,54.5666667 783.8,53.5 L781.1,52.5 C778.233333,51.4333333 775.9,50.4166667 774.1,49.45 C772.3,48.4833333 770.666667,47 769.2,45 C767.733333,43 767,40.3666667 767,37.1 C767,31.9 768.95,27.85 772.85,24.95 C776.75,22.05 781.833333,20.6 788.1,20.6 C793.033333,20.6 798.233333,21.5666667 803.7,23.5 L801.8,35.4 C799.866667,34.2666667 797.683333,33.35 795.25,32.65 C792.816667,31.95 790.533333,31.6 788.4,31.6 C786.2,31.6 784.45,31.9666667 783.15,32.7 C781.85,33.4333333 781.2,34.5 781.2,35.9 C781.2,37.2333333 781.733333,38.2333333 782.8,38.9 C783.866667,39.5666667 785.666667,40.3333333 788.2,41.2 C790.2,41.9333333 791.366667,42.3666667 791.7,42.5 C794.5,43.6333333 796.833333,44.7333333 798.7,45.8 C800.566667,46.8666667 802.2,48.45 803.6,50.55 C805,52.65 805.7,55.3333333 805.7,58.6 C805.7,64.0666667 803.733333,68.1666667 799.8,70.9 C795.866667,73.6333333 790.666667,75 784.2,75 Z" id="Path"></path>
            <path d="M824.8,50.4 C824.266667,47.2 824,44.7666667 824,43.1 C824,40.5 824.366667,38.4166667 825.1,36.85 C825.833333,35.2833333 827.033333,33.6 828.7,31.8 C829.366667,31.1333333 830.9,29.6666667 833.3,27.4 C835.633333,25.2666667 837.3,23.5333333 838.3,22.2 C839.3,20.8666667 839.8,19.3333333 839.8,17.6 C839.8,15.8 839.216667,14.35 838.05,13.25 C836.883333,12.15 835.3,11.6 833.3,11.6 C831.166667,11.6 829.216667,12.2833333 827.45,13.65 C825.683333,15.0166667 824.533333,17.1333333 824,20 C819.466667,19.0666667 815,17.8666667 810.6,16.4 C811.866667,11.6666667 814.583333,7.75 818.75,4.65 C822.916667,1.55 827.933333,0 833.8,0 C839.6,0 844.3,1.5 847.9,4.5 C851.5,7.5 853.3,11.5333333 853.3,16.6 C853.3,20.1333333 852.466667,23.2166667 850.8,25.85 C849.133333,28.4833333 846.666667,31.4666667 843.4,34.8 L840.9,37.3 C838.5,39.7666667 836.95,41.4666667 836.25,42.4 C835.55,43.3333333 835.166667,44.4333333 835.1,45.7 L834.9,49.5 L824.8,50.4 Z M829.8,76 C827.266667,76 825.066667,75.0666667 823.2,73.2 C821.333333,71.3333333 820.4,69.1 820.4,66.5 C820.4,63.9666667 821.316667,61.7666667 823.15,59.9 C824.983333,58.0333333 827.2,57.1 829.8,57.1 C832.4,57.1 834.616667,58.0333333 836.45,59.9 C838.283333,61.7666667 839.2,64 839.2,66.6 C839.2,69.1333333 838.283333,71.3333333 836.45,73.2 C834.616667,75.0666667 832.4,76 829.8,76 Z" id="Shape"></path>
        </g>
        <circle id="Oval" fill="#FF4747" cx="830" cy="67" r="10"></circle>
        <circle id="Oval2" fill="#FF4747" cx="830" cy="67" r="10">
            <animate attributeName="r" attributeType="XML" begin="0s" dur="3s" calcMode="spline" values="10; 20; 20; 20; 20" keyTimes="0; 0.25; 0.5; 0.75; 1" repeatCount="indefinite" keySplines="0.5 0 0.5 1; 0.5 0 0.5 1; 0.5 0 0.5 1; 0.5 0 0.5 1"></animate>
            <animate attributeName="opacity" attributeType="XML" begin="0s" dur="3s" calcMode="spline" values="1; 0; 0; 0; 0" keyTimes="0; 0.25; 0.5; 0.75; 1" repeatCount="indefinite" keySplines="0.5 0 0.5 1; 0.5 0 0.5 1; 0.5 0 0.5 1; 0.5 0 0.5 1"></animate>
        </circle>
    </g>
</svg>